<mxfile host="app.diagrams.net" agent="Mozilla/5.0 (Windows NT 10.0; Win64; x64) AppleWebKit/537.36 (KHTML, like Gecko) Chrome/131.0.0.0 Safari/537.36 Edg/131.0.0.0" version="25.0.1">
  <diagram name="第 1 页" id="N7uHvmKl03pe4OwqZ0FT">
    <mxGraphModel dx="3778" dy="2799" grid="1" gridSize="10" guides="1" tooltips="1" connect="1" arrows="1" fold="1" page="1" pageScale="1" pageWidth="827" pageHeight="1169" math="0" shadow="0">
      <root>
        <mxCell id="0" />
        <mxCell id="1" parent="0" />
        <mxCell id="TeRiBC2zTGeZaFmBc27D-1" value="Parser" style="rounded=1;whiteSpace=wrap;html=1;absoluteArcSize=1;arcSize=14;strokeWidth=2;" vertex="1" parent="1">
          <mxGeometry x="-70" y="-800" width="160" height="40" as="geometry" />
        </mxCell>
        <mxCell id="TeRiBC2zTGeZaFmBc27D-2" value="logical queries opt" style="rounded=1;whiteSpace=wrap;html=1;absoluteArcSize=1;arcSize=14;strokeWidth=2;" vertex="1" parent="1">
          <mxGeometry x="-70" y="-740" width="160" height="40" as="geometry" />
        </mxCell>
        <mxCell id="TeRiBC2zTGeZaFmBc27D-3" value="Physical queries opt" style="rounded=1;whiteSpace=wrap;html=1;absoluteArcSize=1;arcSize=14;strokeWidth=2;" vertex="1" parent="1">
          <mxGeometry x="-70" y="-680" width="160" height="40" as="geometry" />
        </mxCell>
        <mxCell id="TeRiBC2zTGeZaFmBc27D-4" value="Exec Engine" style="rounded=1;whiteSpace=wrap;html=1;absoluteArcSize=1;arcSize=14;strokeWidth=2;" vertex="1" parent="1">
          <mxGeometry x="-70" y="-620" width="160" height="40" as="geometry" />
        </mxCell>
        <mxCell id="TeRiBC2zTGeZaFmBc27D-5" value="file/records/index manager" style="rounded=1;whiteSpace=wrap;html=1;absoluteArcSize=1;arcSize=14;strokeWidth=2;" vertex="1" parent="1">
          <mxGeometry x="-70" y="-560" width="160" height="40" as="geometry" />
        </mxCell>
        <mxCell id="TeRiBC2zTGeZaFmBc27D-6" value="Buffer/memory manager" style="rounded=1;whiteSpace=wrap;html=1;absoluteArcSize=1;arcSize=14;strokeWidth=2;" vertex="1" parent="1">
          <mxGeometry x="-70" y="-495.5" width="160" height="40" as="geometry" />
        </mxCell>
        <mxCell id="TeRiBC2zTGeZaFmBc27D-7" value="" style="strokeWidth=2;html=1;shape=mxgraph.flowchart.database;whiteSpace=wrap;" vertex="1" parent="1">
          <mxGeometry x="-20" y="-430" width="60" height="60" as="geometry" />
        </mxCell>
        <mxCell id="TeRiBC2zTGeZaFmBc27D-8" value="Storage" style="text;html=1;align=center;verticalAlign=middle;resizable=0;points=[];autosize=1;strokeColor=none;fillColor=none;" vertex="1" parent="1">
          <mxGeometry x="60" y="-415" width="70" height="30" as="geometry" />
        </mxCell>
        <mxCell id="TeRiBC2zTGeZaFmBc27D-9" value="" style="endArrow=classic;html=1;rounded=0;" edge="1" parent="1">
          <mxGeometry width="50" height="50" relative="1" as="geometry">
            <mxPoint x="-110" y="-750" as="sourcePoint" />
            <mxPoint x="-110" y="-670" as="targetPoint" />
          </mxGeometry>
        </mxCell>
        <mxCell id="TeRiBC2zTGeZaFmBc27D-10" value="User" style="text;html=1;align=center;verticalAlign=middle;resizable=0;points=[];autosize=1;strokeColor=none;fillColor=none;" vertex="1" parent="1">
          <mxGeometry x="-160" y="-735" width="50" height="30" as="geometry" />
        </mxCell>
        <mxCell id="TeRiBC2zTGeZaFmBc27D-11" value="" style="endArrow=classic;html=1;rounded=0;" edge="1" parent="1">
          <mxGeometry width="50" height="50" relative="1" as="geometry">
            <mxPoint x="130" y="-670" as="sourcePoint" />
            <mxPoint x="130" y="-750" as="targetPoint" />
          </mxGeometry>
        </mxCell>
        <mxCell id="TeRiBC2zTGeZaFmBc27D-12" value="Data" style="text;html=1;align=center;verticalAlign=middle;resizable=0;points=[];autosize=1;strokeColor=none;fillColor=none;" vertex="1" parent="1">
          <mxGeometry x="130" y="-732" width="50" height="30" as="geometry" />
        </mxCell>
        <mxCell id="TeRiBC2zTGeZaFmBc27D-14" value="&lt;h1 style=&quot;margin-top: 0px;&quot;&gt;A1&lt;/h1&gt;&lt;p&gt;Disk is slow, RAM is relatively fast.&amp;nbsp;&lt;span style=&quot;background-color: initial;&quot;&gt;To deal with the massive discrepancy in latency between I/O and CPU, we can use caching to take the advantage of the time and space locality. (As if we have a storage with size of Disk and speed of RAM)&lt;/span&gt;&lt;/p&gt;&lt;p&gt;&lt;br&gt;&lt;/p&gt;&lt;p&gt;So the task of A1 is to come up with a paging memory buffer manager with a decent caching mechanism (LRU or Clock).&lt;/p&gt;" style="text;html=1;whiteSpace=wrap;overflow=hidden;rounded=0;fillColor=#f5f5f5;fontColor=#333333;strokeColor=#666666;" vertex="1" parent="1">
          <mxGeometry x="-440" y="-455" width="180" height="270" as="geometry" />
        </mxCell>
        <mxCell id="TeRiBC2zTGeZaFmBc27D-15" value="&lt;h1 style=&quot;margin-top: 0px;&quot;&gt;A2/A3/A4&lt;/h1&gt;&lt;p&gt;We can store arbitrary data. But how can we store our records (tuples) more efficiently?&lt;/p&gt;&lt;p&gt;Only one or several Record Object to write the page and then write the table.&lt;/p&gt;&lt;p&gt;Once we were able to do that, we should figure out some good ways to organize the records of a table in an efficient way. (In I/O)&lt;/p&gt;&lt;p&gt;Using TPMMS to sort a page or a table on some attribute of a record. (Sorted file organization)&lt;/p&gt;&lt;p&gt;Sorted file, good point finds, great range finds! But costly to keep it sorted.&lt;/p&gt;&lt;p&gt;&lt;br&gt;&lt;/p&gt;&lt;p&gt;Building a B+ tree as the organization of the records.&amp;nbsp;&lt;/p&gt;&lt;p&gt;This is a height balanced tree. Every non-root page is at least 1/2 full. So the fanout of an internal page is large, leads to fewer I/O than sorted file for a point find. 10x faster with 8GB file. Insert not good enough.&lt;/p&gt;&lt;p&gt;Can be used as index too&lt;/p&gt;&lt;p&gt;&lt;br&gt;&lt;/p&gt;" style="text;html=1;whiteSpace=wrap;overflow=hidden;rounded=0;fillColor=#f5f5f5;fontColor=#333333;strokeColor=#666666;" vertex="1" parent="1">
          <mxGeometry x="180" y="-385" width="180" height="540" as="geometry" />
        </mxCell>
        <mxCell id="TeRiBC2zTGeZaFmBc27D-18" value="" style="endArrow=classic;html=1;rounded=0;exitX=1;exitY=0.5;exitDx=0;exitDy=0;entryX=0;entryY=0;entryDx=0;entryDy=0;" edge="1" parent="1" source="TeRiBC2zTGeZaFmBc27D-5" target="TeRiBC2zTGeZaFmBc27D-15">
          <mxGeometry width="50" height="50" relative="1" as="geometry">
            <mxPoint x="140" y="-530" as="sourcePoint" />
            <mxPoint x="190" y="-580" as="targetPoint" />
          </mxGeometry>
        </mxCell>
        <mxCell id="TeRiBC2zTGeZaFmBc27D-19" value="&lt;h1 style=&quot;margin-top: 0px;&quot;&gt;A5&lt;/h1&gt;&lt;p&gt;The relational operations of a DB are simply just select, join, projection and aggregation.&lt;/p&gt;&lt;p&gt;Impl ScanJoin, SortMerge Join, Regular Selection, B+Tree Selection and aggregation.&lt;/p&gt;&lt;p&gt;&lt;br&gt;&lt;/p&gt;" style="text;html=1;whiteSpace=wrap;overflow=hidden;rounded=0;fillColor=#f5f5f5;fontColor=#333333;strokeColor=#666666;" vertex="1" parent="1">
          <mxGeometry x="-480" y="-680" width="180" height="150" as="geometry" />
        </mxCell>
        <mxCell id="TeRiBC2zTGeZaFmBc27D-20" value="&lt;h1 style=&quot;margin-top: 0px;&quot;&gt;A6&lt;/h1&gt;&lt;p&gt;How do we know what operations users what our DB to perform?&lt;/p&gt;&lt;p&gt;SQL compiler! We used a compiler&#39;s compiler for that. And climb down the entire expression tree output from the lexer and parser to perform a semantic check&lt;/p&gt;" style="text;html=1;whiteSpace=wrap;overflow=hidden;rounded=0;fillColor=#f5f5f5;fontColor=#333333;strokeColor=#666666;" vertex="1" parent="1">
          <mxGeometry x="-480" y="-960" width="190" height="180" as="geometry" />
        </mxCell>
        <mxCell id="TeRiBC2zTGeZaFmBc27D-21" value="&lt;h1 style=&quot;margin-top: 0px;&quot;&gt;A7&lt;/h1&gt;&lt;p&gt;Different ways of executing the relational operation can lead to different costs. We need the Best Way!&lt;/p&gt;&lt;p&gt;How do we analyze the cost of a plan without actually executing it? Guess!!!&lt;/p&gt;&lt;p&gt;Come up with an algorithm to guess the entire number of tuples (the cost) produced by the plan based on the num of tuples and unique value count of a table.&lt;/p&gt;&lt;p&gt;We analyze all enumerations of possible plans to find the optimal. Huge cost, so used DP to lift some of that weight.&lt;/p&gt;" style="text;html=1;whiteSpace=wrap;overflow=hidden;rounded=0;fillColor=#f5f5f5;fontColor=#333333;strokeColor=#666666;" vertex="1" parent="1">
          <mxGeometry x="240" y="-1150" width="180" height="340" as="geometry" />
        </mxCell>
        <mxCell id="TeRiBC2zTGeZaFmBc27D-23" value="" style="endArrow=classic;html=1;rounded=0;exitX=0;exitY=0.5;exitDx=0;exitDy=0;entryX=1;entryY=0;entryDx=0;entryDy=0;" edge="1" parent="1" source="TeRiBC2zTGeZaFmBc27D-6" target="TeRiBC2zTGeZaFmBc27D-14">
          <mxGeometry width="50" height="50" relative="1" as="geometry">
            <mxPoint x="-210" y="-410" as="sourcePoint" />
            <mxPoint x="-160" y="-460" as="targetPoint" />
          </mxGeometry>
        </mxCell>
        <mxCell id="TeRiBC2zTGeZaFmBc27D-24" value="" style="endArrow=classic;html=1;rounded=0;exitX=0;exitY=0.5;exitDx=0;exitDy=0;entryX=1;entryY=0.5;entryDx=0;entryDy=0;" edge="1" parent="1" source="TeRiBC2zTGeZaFmBc27D-4" target="TeRiBC2zTGeZaFmBc27D-19">
          <mxGeometry width="50" height="50" relative="1" as="geometry">
            <mxPoint x="-160" y="-510" as="sourcePoint" />
            <mxPoint x="-110" y="-560" as="targetPoint" />
          </mxGeometry>
        </mxCell>
        <mxCell id="TeRiBC2zTGeZaFmBc27D-25" value="" style="endArrow=classic;html=1;rounded=0;exitX=1;exitY=0.5;exitDx=0;exitDy=0;entryX=0;entryY=0.5;entryDx=0;entryDy=0;" edge="1" parent="1" source="TeRiBC2zTGeZaFmBc27D-2" target="TeRiBC2zTGeZaFmBc27D-21">
          <mxGeometry width="50" height="50" relative="1" as="geometry">
            <mxPoint x="80" y="-860" as="sourcePoint" />
            <mxPoint x="130" y="-910" as="targetPoint" />
          </mxGeometry>
        </mxCell>
        <mxCell id="TeRiBC2zTGeZaFmBc27D-26" value="" style="endArrow=classic;html=1;rounded=0;exitX=0;exitY=0.5;exitDx=0;exitDy=0;entryX=1;entryY=0.5;entryDx=0;entryDy=0;" edge="1" parent="1" source="TeRiBC2zTGeZaFmBc27D-1" target="TeRiBC2zTGeZaFmBc27D-20">
          <mxGeometry width="50" height="50" relative="1" as="geometry">
            <mxPoint x="-180" y="-890" as="sourcePoint" />
            <mxPoint x="-130" y="-940" as="targetPoint" />
          </mxGeometry>
        </mxCell>
        <mxCell id="TeRiBC2zTGeZaFmBc27D-27" value="&lt;h1 style=&quot;margin-top: 0px;&quot;&gt;A8&lt;/h1&gt;&lt;p&gt;Here we have the best optimal order of executing the relational operation. But there are still rooms for optimization in the actual physical executing.&lt;/p&gt;&lt;p&gt;&lt;/p&gt;&lt;ul&gt;&lt;li&gt;Skip the sort phase of SortMerge Join if the tables are already sorted.&lt;/li&gt;&lt;li&gt;Fuse selections and projections in one pass.&lt;/li&gt;&lt;li&gt;Use indexing (if possible) to aid the selection&lt;/li&gt;&lt;li&gt;Build a pipeline of the RelOp tree, instead of output a table at a time, output a record at a time and send it to the next pipeline, less I/O!!!.&lt;/li&gt;&lt;/ul&gt;&lt;p&gt;&lt;/p&gt;" style="text;html=1;whiteSpace=wrap;overflow=hidden;rounded=0;fillColor=#f5f5f5;fontColor=#333333;strokeColor=#666666;" vertex="1" parent="1">
          <mxGeometry x="290" y="-780" width="180" height="335" as="geometry" />
        </mxCell>
        <mxCell id="TeRiBC2zTGeZaFmBc27D-28" value="" style="endArrow=classic;html=1;rounded=0;entryX=0;entryY=0.5;entryDx=0;entryDy=0;exitX=1;exitY=0.5;exitDx=0;exitDy=0;" edge="1" parent="1" source="TeRiBC2zTGeZaFmBc27D-3" target="TeRiBC2zTGeZaFmBc27D-27">
          <mxGeometry width="50" height="50" relative="1" as="geometry">
            <mxPoint x="90" y="-600" as="sourcePoint" />
            <mxPoint x="140" y="-650" as="targetPoint" />
          </mxGeometry>
        </mxCell>
        <mxCell id="TeRiBC2zTGeZaFmBc27D-30" value="&lt;font style=&quot;font-size: 24px;&quot;&gt;MyDB&lt;/font&gt;" style="text;html=1;align=center;verticalAlign=middle;resizable=0;points=[];autosize=1;strokeColor=none;fillColor=none;" vertex="1" parent="1">
          <mxGeometry x="-610" y="-1169" width="90" height="40" as="geometry" />
        </mxCell>
        <mxCell id="TeRiBC2zTGeZaFmBc27D-31" value="User Input" style="shape=parallelogram;html=1;strokeWidth=2;perimeter=parallelogramPerimeter;whiteSpace=wrap;rounded=1;arcSize=12;size=0.23;" vertex="1" parent="1">
          <mxGeometry x="-40" y="-880" width="100" height="60" as="geometry" />
        </mxCell>
      </root>
    </mxGraphModel>
  </diagram>
</mxfile>
